<mxfile host="app.diagrams.net" modified="2024-05-10T06:46:42.176Z" agent="Mozilla/5.0 (Windows NT 10.0; Win64; x64) AppleWebKit/537.36 (KHTML, like Gecko) Chrome/124.0.0.0 Safari/537.36 Edg/124.0.0.0" version="24.3.1" etag="l1gCG__Z2GVfJN7GNSp7" type="github">
  <diagram name="Страница — 1" id="jU7QI2Ymo3fW8QNFEyEg">
    <mxGraphModel>
      <root>
        <mxCell id="0" />
        <mxCell id="1" parent="0" />
      </root>
    </mxGraphModel>
  </diagram>
</mxfile>
